<svg xmlns="http://www.w3.org/2000/svg" width="165" height="180" viewBox="0 0 189 203" fill="none">
  <path opacity="0.5" fill-rule="evenodd" clip-rule="evenodd" d="M173.25 101.503C173.25 148.217 137.992 186.087 94.5 186.087C85.3319 186.087 76.5293 184.403 68.3461 181.31C64.9009 172.357 63 162.544 63 152.253C63 133.466 69.3368 116.267 79.8399 102.99C89.0663 117.417 104.536 126.878 122.062 126.878C140.659 126.878 156.94 116.226 165.904 100.292C167.789 96.9426 173.25 97.5897 173.25 101.503Z" fill="#1C274C"/>
  <path d="M15.75 101.5C15.75 138.367 37.7096 169.724 68.3461 181.307C64.9009 172.354 63 162.54 63 152.25C63 133.462 69.3368 116.264 79.8399 102.987C74.1846 94.1438 70.875 83.4349 70.875 71.8958C70.875 51.9211 80.7928 34.4343 95.6277 24.8063C98.7462 22.7823 98.1438 16.9167 94.5 16.9167C51.0076 16.9167 15.75 54.7859 15.75 101.5Z" fill="#1C274C"/>
</svg>