<svg xmlns="http://www.w3.org/2000/svg" width="190" height="170" viewBox="0 0 216 181" fill="none">
  <path d="M174.726 102.144C172.755 102.165 170.788 102.362 168.848 102.734C164.963 95.5207 159.358 89.5267 152.601 85.3583C145.843 81.1898 138.171 78.9947 130.361 78.9947C122.551 78.9947 114.88 81.1898 108.122 85.3583C101.364 89.5267 95.7596 95.5207 91.8746 102.734C89.9342 102.362 87.9678 102.165 85.9963 102.144C77.1715 102.144 68.7082 105.877 62.4682 112.521C56.2282 119.165 52.7225 128.176 52.7225 137.572C52.7225 146.968 56.2282 155.979 62.4682 162.623C68.7082 169.267 77.1715 173 85.9963 173H174.726C183.551 173 192.014 169.267 198.254 162.623C204.494 155.979 208 146.968 208 137.572C208 128.176 204.494 119.165 198.254 112.521C192.014 105.877 183.551 102.144 174.726 102.144Z" fill="#2CA9BC"/>
  <path d="M196.243 110.529C202.082 103.78 205.948 95.3666 207.369 86.3168C208.791 77.2669 207.706 67.9722 204.247 59.568C200.789 51.1638 195.107 44.0139 187.894 38.9918C180.682 33.9697 172.253 31.2927 163.635 31.2879C160.157 31.3366 156.696 31.8121 153.32 32.705C146.94 23.2035 138.057 15.9302 127.794 11.8051C117.531 7.67999 106.349 6.88841 95.6636 9.53049C84.9781 12.1726 75.2685 18.1296 67.7631 26.6481C60.2577 35.1666 55.2937 45.8638 53.499 57.3866C48.9306 55.465 44.0193 54.6442 39.1176 54.9831C34.216 55.322 29.4456 56.8122 25.149 59.3467C20.8524 61.8812 17.1361 65.3971 14.2668 69.642C11.3976 73.887 9.44665 78.7556 8.55403 83.8985C7.6614 89.0414 7.84926 94.3309 9.1041 99.3874C10.3589 104.444 12.6496 109.142 15.8118 113.144C18.9739 117.146 22.929 120.353 27.3931 122.535C31.8572 124.716 36.7197 125.819 41.6313 125.763H54.719" stroke="black" stroke-width="15" stroke-linecap="round" stroke-linejoin="round"/>
  <path d="M174.726 102.144C172.755 102.165 170.788 102.362 168.848 102.734C164.963 95.5207 159.358 89.5267 152.601 85.3583C145.843 81.1898 138.171 78.9947 130.361 78.9947C122.551 78.9947 114.88 81.1898 108.122 85.3583C101.364 89.5267 95.7596 95.5207 91.8746 102.734C89.9342 102.362 87.9678 102.165 85.9963 102.144C77.1715 102.144 68.7082 105.877 62.4682 112.521C56.2282 119.165 52.7225 128.176 52.7225 137.572C52.7225 146.968 56.2282 155.979 62.4682 162.623C68.7082 169.267 77.1715 173 85.9963 173H174.726C183.551 173 192.014 169.267 198.254 162.623C204.494 155.979 208 146.968 208 137.572C208 128.176 204.494 119.165 198.254 112.521C192.014 105.877 183.551 102.144 174.726 102.144Z" stroke="black" stroke-width="15" stroke-linecap="round" stroke-linejoin="round"/>
</svg>