<svg xmlns="http://www.w3.org/2000/svg" width="165" height="178" viewBox="0 0 180 200" fill="none">
  <path opacity="0.5" d="M90 183.333C131.421 183.333 165 146.023 165 100C165 96.1442 159.799 95.5067 158.004 98.8067C149.467 114.505 133.961 125 116.25 125C89.3257 125 67.5 100.749 67.5 70.8333C67.5 51.1538 76.9455 33.9254 91.074 24.4397C94.044 22.4456 93.4702 16.6667 90 16.6667C48.5786 16.6667 15 53.9762 15 100C15 146.023 48.5786 183.333 90 183.333Z" fill="#1C274C"/>
  <path d="M84.6427 183.333C100.028 183.333 112.5 170.165 112.5 153.922C112.5 141.047 104.665 130.105 93.756 126.12C92.2057 111.426 80.4022 100 66.0714 100C50.6863 100 38.2143 113.168 38.2143 129.412C38.2143 133.004 38.8244 136.447 39.9412 139.629C38.6315 139.358 37.2779 139.216 35.8928 139.216C24.3541 139.216 15 149.092 15 161.274C15 173.457 24.3541 183.333 35.8928 183.333H84.6427Z" fill="#1C274C"/>
</svg>