<svg xmlns="http://www.w3.org/2000/svg" width="18" height="24" viewBox="0 0 18 24" fill="none">
  <path d="M12.5543 3.71C12.3606 3.46629 11.9898 3.41385 11.7262 3.593C11.4625 3.77216 11.4059 4.11498 11.5995 4.35877C15.9103 9.78275 16.8151 13.3815 16.8151 15.4454C16.8151 17.4678 16.1618 19.3012 14.9753 20.6078C13.5916 22.1318 11.5811 22.9045 8.99996 22.9045C3.23155 22.9045 1.18479 18.8863 1.18479 15.4454C1.18479 11.631 3.40453 7.90576 5.2667 5.45217C7.30911 2.76107 9.38265 0.966756 9.40318 0.949082C9.6429 0.743198 9.65665 0.396576 9.43399 0.174917C9.21133 -0.04667 8.83646 -0.0594511 8.59682 0.146433C8.50914 0.221732 6.42494 2.02327 4.31152 4.80347C2.34469 7.39094 0 11.3375 0 15.4453C0 17.7139 0.76403 19.7981 2.15126 21.3139C3.75949 23.0711 6.1278 24 8.99996 24C11.9062 24 14.2862 23.0706 15.8827 21.3123C17.2481 19.8086 18 17.725 18 15.4454C17.9999 11.4092 15.0386 6.83581 12.5543 3.71Z" fill="white"/>
  <path d="M11.6953 10.8198L4.17888 17.7699C3.94753 17.9838 3.94753 18.3306 4.17888 18.5445C4.2946 18.6514 4.44625 18.7049 4.59782 18.7049C4.7494 18.7049 4.90105 18.6515 5.01676 18.5445L12.5332 11.5944C12.7646 11.3805 12.7646 11.0336 12.5332 10.8198C12.3017 10.6059 11.9267 10.6059 11.6953 10.8198Z" fill="white"/>
  <path d="M11.1847 15.1838C10.1348 15.1838 9.28064 15.9736 9.28064 16.9443C9.28064 17.9151 10.1348 18.7049 11.1847 18.7049C12.2346 18.7049 13.0887 17.9151 13.0887 16.9443C13.0887 15.9736 12.2346 15.1838 11.1847 15.1838ZM11.1847 17.6094C10.7881 17.6094 10.4654 17.3111 10.4654 16.9443C10.4654 16.5776 10.7881 16.2793 11.1847 16.2793C11.5813 16.2793 11.9039 16.5776 11.9039 16.9443C11.9039 17.3111 11.5813 17.6094 11.1847 17.6094Z" fill="white"/>
  <path d="M5.9094 14.1805C6.95928 14.1805 7.81344 13.3907 7.81344 12.4199C7.81344 11.4492 6.95928 10.6594 5.9094 10.6594C4.85952 10.6594 4.00537 11.4492 4.00537 12.4199C4.00537 13.3907 4.85952 14.1805 5.9094 14.1805ZM5.9094 11.7548C6.30599 11.7548 6.62865 12.0532 6.62865 12.4199C6.62865 12.7866 6.30599 13.0849 5.9094 13.0849C5.51282 13.0849 5.19016 12.7866 5.19016 12.4199C5.19016 12.0532 5.51274 11.7548 5.9094 11.7548Z" fill="white"/>
</svg>