<svg xmlns="http://www.w3.org/2000/svg" width="24" height="24" viewBox="0 0 24 24" fill="none">
  <g clip-path="url(#clip0_17_209)">
    <path d="M20.25 7.5H15V9H20.25V7.5Z" fill="white"/>
    <path d="M22.5 12H15V13.5H22.5V12Z" fill="white"/>
    <path d="M20.25 16.5H15V18H20.25V16.5Z" fill="white"/>
    <path d="M7.5 15.1379V5.25H6V15.1379C5.49959 15.3148 5.07784 15.663 4.80928 16.1208C4.54072 16.5786 4.44265 17.1166 4.53241 17.6397C4.62216 18.1628 4.89396 18.6374 5.29976 18.9795C5.70556 19.3216 6.21924 19.5092 6.75 19.5092C7.28077 19.5092 7.79445 19.3216 8.20025 18.9795C8.60605 18.6374 8.87785 18.1628 8.9676 17.6397C9.05736 17.1166 8.95929 16.5786 8.69073 16.1208C8.42217 15.663 8.00042 15.3148 7.5 15.1379Z" fill="white"/>
    <path d="M22.5 3H9.7308C9.26028 2.37035 8.60322 1.9051 7.85305 1.6704C7.10288 1.43569 6.2978 1.4435 5.55232 1.6927C4.80685 1.9419 4.15892 2.41981 3.7007 3.05846C3.24248 3.69711 2.99729 4.46398 3 5.25V13.5831C2.2765 14.3215 1.78711 15.2571 1.59319 16.2725C1.39928 17.288 1.50947 18.3381 1.90995 19.2911C2.31043 20.2442 2.98338 21.0578 3.84441 21.63C4.70543 22.2021 5.71621 22.5073 6.75 22.5073C7.78379 22.5073 8.79457 22.2021 9.6556 21.63C10.5166 21.0578 11.1896 20.2442 11.5901 19.2911C11.9905 18.3381 12.1007 17.288 11.9068 16.2725C11.7129 15.2571 11.2235 14.3215 10.5 13.5831V5.25C10.5 4.99809 10.4746 4.74682 10.4242 4.5H22.5V3ZM6.75 21C5.99081 21.001 5.24924 20.7713 4.6236 20.3412C3.99795 19.9112 3.51779 19.3011 3.24675 18.592C2.97572 17.8828 2.92663 17.108 3.10598 16.3703C3.28532 15.6326 3.68465 14.9669 4.251 14.4613L4.5 14.2375V5.25C4.5 4.65326 4.73706 4.08096 5.15901 3.65901C5.58097 3.23705 6.15327 3 6.75 3C7.34674 3 7.91904 3.23705 8.34099 3.65901C8.76295 4.08096 9 4.65326 9 5.25V14.2375L9.249 14.4613C9.81536 14.9669 10.2147 15.6326 10.394 16.3703C10.5734 17.108 10.5243 17.8828 10.2533 18.592C9.98222 19.3011 9.50206 19.9112 8.87641 20.3412C8.25077 20.7713 7.50919 21.001 6.75 21Z" fill="white"/>
  </g>
  <defs>
    <clipPath id="clip0_17_209">
      <rect width="24" height="24" fill="white"/>
    </clipPath>
  </defs>
</svg>