<svg xmlns="http://www.w3.org/2000/svg" width="24" height="24" viewBox="0 0 24 24" fill="none">
  <g clip-path="url(#clip0_17_216)">
    <path d="M20.25 3H15V4.5H20.25V3Z" fill="white"/>
    <path d="M22.5 7.5H15V9H22.5V7.5Z" fill="white"/>
    <path d="M20.25 12H15V13.5H20.25V12Z" fill="white"/>
    <path d="M9 17.25C9 17.8467 8.76295 18.419 8.34099 18.841C7.91903 19.2629 7.34674 19.5 6.75 19.5C6.15326 19.5 5.58097 19.2629 5.15901 18.841C4.73705 18.419 4.5 17.8467 4.5 17.25H9Z" fill="white"/>
    <path d="M22.5 16.5H11.9394C11.78 15.4 11.276 14.3788 10.5 13.5831V5.25C10.5 4.25544 10.1049 3.30161 9.40165 2.59835C8.69839 1.89509 7.74456 1.5 6.75 1.5C5.75544 1.5 4.80161 1.89509 4.09835 2.59835C3.39509 3.30161 3 4.25544 3 5.25V13.5831C2.42 14.1751 1.98853 14.8962 1.74093 15.6871C1.49334 16.478 1.43667 17.3164 1.57557 18.1335C1.71447 18.9505 2.04499 19.7231 2.54004 20.3878C3.03509 21.0525 3.68059 21.5904 4.42364 21.9575C5.16669 22.3246 5.98615 22.5105 6.81487 22.4998C7.6436 22.4891 8.458 22.2822 9.19135 21.8961C9.9247 21.51 10.5561 20.9556 11.0339 20.2784C11.5117 19.6012 11.8222 18.8204 11.94 18H22.5V16.5ZM6.75 21C5.99081 21.001 5.24924 20.7713 4.62359 20.3412C3.99795 19.9112 3.51778 19.3011 3.24675 18.592C2.97572 17.8828 2.92662 17.108 3.10597 16.3703C3.28532 15.6326 3.68464 14.9669 4.251 14.4613L4.5 14.2376V5.25C4.5 4.65326 4.73705 4.08097 5.15901 3.65901C5.58097 3.23705 6.15326 3 6.75 3C7.34674 3 7.91903 3.23705 8.34099 3.65901C8.76295 4.08097 9 4.65326 9 5.25V14.2376L9.249 14.4613C9.81536 14.9669 10.2147 15.6326 10.394 16.3703C10.5734 17.108 10.5243 17.8828 10.2532 18.592C9.98222 19.3011 9.50205 19.9112 8.87641 20.3412C8.25076 20.7713 7.50919 21.001 6.75 21Z" fill="white"/>
  </g>
  <defs>
    <clipPath id="clip0_17_216">
      <rect width="24" height="24" fill="white"/>
    </clipPath>
  </defs>
</svg>