<svg xmlns="http://www.w3.org/2000/svg" width="160" height="160" viewBox="0 0 180 180" fill="none">
  <path d="M7.5 104.25C7.5 113.4 11.1348 122.175 17.6048 128.645C24.0748 135.115 32.85 138.75 42 138.75C43.9891 138.75 45.8968 137.96 47.3033 136.553C48.7098 135.147 49.5 133.239 49.5 131.25C49.5 129.261 48.7098 127.353 47.3033 125.947C45.8968 124.54 43.9891 123.75 42 123.75C39.135 123.793 36.2957 123.205 33.684 122.026C31.0724 120.848 28.7525 119.108 26.8895 116.931C25.0266 114.754 23.6662 112.193 22.9053 109.431C22.1444 106.668 22.0017 103.772 22.4872 100.948C22.9727 98.1242 24.0745 95.4421 25.7143 93.0924C27.3541 90.7427 29.4916 88.7833 31.9747 87.3535C34.4578 85.9237 37.2254 85.0587 40.0808 84.82C42.9361 84.5813 45.809 84.9748 48.495 85.9725C50.3459 86.6288 52.3803 86.5329 54.1613 85.7056C55.9423 84.8782 57.3277 83.3852 58.02 81.5475C59.8987 76.5643 63.2438 72.2677 67.6141 69.2243C71.9844 66.1809 77.1745 64.5337 82.5 64.5C87.8132 64.5847 92.9804 66.252 97.3411 69.2887C101.702 72.3254 105.058 76.5935 106.98 81.5475C107.672 83.3852 109.058 84.8782 110.839 85.7056C112.62 86.5329 114.654 86.6288 116.505 85.9725C120.245 84.59 124.325 84.4175 128.169 85.4793C132.012 86.5411 135.425 88.7836 137.925 91.89L138.007 91.9575C140.892 95.4063 142.481 99.7542 142.5 104.25C142.5 109.422 140.446 114.382 136.789 118.039C133.132 121.696 128.172 123.75 123 123.75C121.011 123.75 119.103 124.54 117.697 125.947C116.29 127.353 115.5 129.261 115.5 131.25C115.5 133.239 116.29 135.147 117.697 136.553C119.103 137.96 121.011 138.75 123 138.75C127.531 138.75 132.017 137.858 136.203 136.124C140.388 134.39 144.192 131.849 147.395 128.645C150.599 125.442 153.14 121.638 154.874 117.453C156.608 113.267 157.5 108.781 157.5 104.25C157.498 99.2832 156.413 94.3766 154.32 89.8725C162.583 84.4504 168.828 76.4552 172.087 67.125C172.502 65.9277 172.607 64.6449 172.392 63.3963C172.176 62.1476 171.648 60.9738 170.857 59.9845C170.065 58.9952 169.036 58.2225 167.865 57.7386C166.694 57.2548 165.419 57.0755 164.16 57.2175C163.052 57.3496 161.938 57.4172 160.822 57.42C156.017 57.4334 151.279 56.2939 147.006 54.097C142.732 51.9001 139.048 48.7101 136.263 44.7946C133.477 40.8792 131.672 36.3526 130.998 31.595C130.324 26.8373 130.801 21.9875 132.39 17.4525C132.803 16.2585 132.907 14.9795 132.694 13.7344C132.48 12.4892 131.956 11.3181 131.169 10.3298C130.381 9.34158 129.358 8.56813 128.192 8.08129C127.026 7.59444 125.756 7.40998 124.5 7.54501C113.953 8.72351 104.164 13.5971 96.8662 21.3024C89.5687 29.0076 85.234 39.0472 84.63 49.6425C83.925 49.6425 83.235 49.5 82.5225 49.5C75.2994 49.5318 68.2103 51.4528 61.9593 55.0723C55.7084 58.6918 50.5133 63.8838 46.89 70.1325C41.9989 69.4322 37.0145 69.7906 32.274 71.1835C27.5334 72.5764 23.1474 74.9713 19.4126 78.2062C15.6779 81.4411 12.6815 85.4404 10.6263 89.9336C8.57103 94.4268 7.5049 99.3091 7.5 104.25ZM115.74 25.56C115.74 26.1375 115.702 26.7225 115.702 27.3C115.717 37.8248 119.403 48.0147 126.126 56.113C132.848 64.2113 142.185 69.7105 152.527 71.6625C150.438 74.1251 147.97 76.2391 145.215 77.925C141.523 74.7638 137.195 72.4316 132.524 71.086C127.853 69.7404 122.948 69.4127 118.14 70.125C113.694 62.7461 107.172 56.8404 99.39 53.145C99.2265 47.4713 100.676 41.8676 103.57 36.9847C106.464 32.1019 110.684 28.1403 115.74 25.56ZM78 115.853L70.5 130.853C69.6109 132.633 68.0509 133.987 66.1634 134.617C64.2758 135.247 62.2153 135.102 60.435 134.213C58.6547 133.323 57.3006 131.763 56.6705 129.876C56.0403 127.988 56.1859 125.928 57.075 124.148L64.575 109.148C65.4641 107.367 67.0241 106.013 68.9116 105.383C70.7992 104.753 72.8597 104.898 74.64 105.788C76.4203 106.677 77.7744 108.237 78.4045 110.124C79.0346 112.012 78.8891 114.072 78 115.853ZM108 115.853L100.5 130.853C99.6109 132.633 98.0509 133.987 96.1634 134.617C94.2758 135.247 92.2153 135.102 90.435 134.213C88.6547 133.323 87.3006 131.763 86.6705 129.876C86.0403 127.988 86.1859 125.928 87.075 124.148L94.575 109.148C95.4641 107.367 97.0241 106.013 98.9116 105.383C100.799 104.753 102.86 104.898 104.64 105.788C106.42 106.677 107.774 108.237 108.405 110.124C109.035 112.012 108.889 114.072 108 115.853ZM78 153.353L70.5 168.353C69.6109 170.133 68.0509 171.487 66.1634 172.117C64.2758 172.747 62.2153 172.602 60.435 171.713C58.6547 170.823 57.3006 169.263 56.6705 167.376C56.0403 165.488 56.1859 163.428 57.075 161.648L64.575 146.648C65.0153 145.766 65.6248 144.98 66.3689 144.334C67.113 143.688 67.977 143.195 68.9116 142.883C69.8462 142.571 70.8332 142.446 71.816 142.516C72.7989 142.585 73.7585 142.847 74.64 143.288C75.5215 143.728 76.3076 144.337 76.9536 145.081C77.5995 145.825 78.0925 146.69 78.4045 147.624C78.7165 148.559 78.8414 149.546 78.772 150.529C78.7026 151.511 78.4402 152.471 78 153.353ZM108 153.353L100.5 168.353C99.6109 170.133 98.0509 171.487 96.1634 172.117C94.2758 172.747 92.2153 172.602 90.435 171.713C88.6547 170.823 87.3006 169.263 86.6705 167.376C86.0403 165.488 86.1859 163.428 87.075 161.648L94.575 146.648C95.0152 145.766 95.6248 144.98 96.3689 144.334C97.113 143.688 97.977 143.195 98.9116 142.883C99.8462 142.571 100.833 142.446 101.816 142.516C102.799 142.585 103.758 142.847 104.64 143.288C105.521 143.728 106.308 144.337 106.954 145.081C107.599 145.825 108.093 146.69 108.405 147.624C108.717 148.559 108.841 149.546 108.772 150.529C108.703 151.511 108.44 152.471 108 153.353Z" fill="black"/>
</svg>