<svg xmlns="http://www.w3.org/2000/svg" width="160" height="160" viewBox="0 0 180 180" fill="none">
  <path d="M155.25 78.75C153.013 84.2802 149.178 89.0179 144.235 92.3577C139.292 95.6976 133.466 97.4879 127.5 97.5H45C41.048 97.5025 37.165 96.4641 33.7418 94.4892C30.3186 92.5143 27.476 89.6725 25.5 86.25C28.1929 81.6131 32.4533 78.0903 37.5136 76.3165C42.5739 74.5426 48.1013 74.6343 53.1 76.575C54.3136 69.257 57.6703 62.4633 62.7455 57.0533C67.8207 51.6433 74.3864 47.86 81.6121 46.1821C88.8378 44.5041 96.3988 45.0068 103.339 47.6267C110.279 50.2465 116.286 54.8657 120.6 60.9C122.858 60.3386 125.173 60.0367 127.5 60C133.466 60.0121 139.292 61.8024 144.235 65.1423C149.178 68.4821 153.013 73.2198 155.25 78.75Z" fill="#B7B7B7"/>
  <path d="M157.5 67.5C157.529 71.3646 156.763 75.1938 155.25 78.75C153.013 84.2802 149.178 89.0179 144.235 92.3577C139.292 95.6976 133.465 97.4879 127.5 97.5H45C41.6816 97.5249 38.3988 96.8154 35.3868 95.4224C32.3748 94.0294 29.7083 91.9874 27.5782 89.4428C25.4482 86.8981 23.9074 83.9138 23.0663 80.7037C22.2251 77.4936 22.1045 74.1371 22.713 70.8749C23.3215 67.6127 24.644 64.5254 26.5859 61.8344C28.5278 59.1434 31.0408 56.9153 33.945 55.3096C36.8492 53.704 40.0726 52.7607 43.3842 52.5472C46.6958 52.3338 50.0137 52.8555 53.1 54.075C54.3136 46.757 57.6703 39.9633 62.7455 34.5533C67.8207 29.1433 74.3864 25.36 81.6121 23.6821C88.8378 22.0041 96.3988 22.5068 103.339 25.1267C110.279 27.7465 116.286 32.3657 120.6 38.4C122.858 37.8386 125.173 37.5367 127.5 37.5C135.456 37.5 143.087 40.6607 148.713 46.2868C154.339 51.9129 157.5 59.5435 157.5 67.5Z" stroke="black" stroke-width="15" stroke-linecap="round" stroke-linejoin="round"/>
  <path d="M45 127.5L37.5 142.5M75 127.5L60 157.5M105 127.5L97.5 142.5M135 127.5L120 157.5" stroke="#2CA9BC" stroke-width="15" stroke-linecap="round" stroke-linejoin="round"/>
</svg>