<svg xmlns="http://www.w3.org/2000/svg" width="28" height="28" viewBox="0 0 37 39" fill="none">
  <g clip-path="url(#clip0_13_15)">
    <path d="M4.89791 17.8594C4.74772 13.5674 6.23002 9.49259 9.0458 6.37685C14.8765 -0.0749334 24.732 -0.419824 31.0289 5.60756C34.0556 8.51885 35.8202 12.5105 35.9693 16.772C36.1195 21.064 34.6372 25.1388 31.8214 28.2546C29.0056 31.3703 25.1397 33.1818 21.0087 33.3264C16.8776 33.4709 12.8945 31.9341 9.86783 29.0228C6.81163 26.1126 5.04811 22.1514 4.89791 17.8594ZM34.5234 16.8226C34.3881 12.9568 32.7849 9.35571 30.0334 6.70909C24.3469 1.2394 15.4061 1.55228 10.1158 7.4061C4.82559 13.2599 5.14835 22.4831 10.8349 27.9528C16.5214 33.4225 25.4622 33.1096 30.7524 27.2558C33.3112 24.3928 34.6598 20.7189 34.5234 16.8226Z" fill="white"/>
    <path d="M7 22C2.85463 21.2054 7.5 9 10.0912 7C14.5293 2.12079 24.2324 0.999999 29.5 6C31.8224 8.20449 33.886 9.74296 34 13C37.2771 16.0664 33.1321 25.1091 31 27.5C28.8384 29.8919 24.6573 31.8895 21.5 32C18.3427 32.1105 13.5 30.9688 11 28.5C8.70492 26.2336 7.11398 25.257 7 22ZM30.776 16.9538C30.6758 14.0925 29.5198 11.451 27.4725 9.51114C23.2841 5.48239 16.7334 5.71163 12.8663 10.0223C10.9891 12.0994 9.99108 14.8163 10.0912 17.6776C10.1913 20.539 11.3474 23.1805 13.3947 25.1203C15.4125 27.0611 18.0485 28.0965 20.8222 27.9995C23.5959 27.9024 26.1237 26.6863 28.0009 24.6091C29.8781 22.532 30.8761 19.8151 30.776 16.9538Z" fill="white"/>
    <path d="M1.1398 34.5703L8.84765 26.0413L12.8221 29.8642L5.11425 38.3932L1.1398 34.5703ZM8.92222 28.1721L3.20533 34.498L5.03969 36.2624L10.7555 29.9061L8.92222 28.1721Z" fill="white"/>
    <path d="M10.9331 30.82L8.0386 28.0311L7.05224 29.1207L9.94676 31.9096L10.9331 30.82Z" fill="white"/>
  </g>
  <defs>
    <clipPath id="clip0_13_15">
      <rect width="36.5498" height="35.4306" fill="white" transform="translate(35.409 0.760864) rotate(87.9958)"/>
    </clipPath>
  </defs>
</svg>