<svg xmlns="http://www.w3.org/2000/svg" width="160" height="160" viewBox="0 0 180 180" fill="none">
  <path d="M63.4715 125.134L86.4853 132.746V170.624L117.2 117.612L101.887 110V72.1218L63.4715 125.134Z" fill="#2CA9BC"/>
  <path d="M63.4715 125.134L86.4853 132.746V170.624L117.2 117.612L101.887 110V72.1218L63.4715 125.134Z" stroke="black" stroke-width="15" stroke-linecap="round" stroke-linejoin="round"/>
  <path d="M144.064 97.822C152.482 95.6221 159.811 90.4337 164.683 83.2257C169.555 76.0176 171.638 67.2826 170.541 58.6518C169.444 50.021 165.244 42.0843 158.724 36.3238C152.204 30.5633 143.81 27.3727 135.11 27.3479C132.302 27.3848 129.507 27.7454 126.782 28.4225C121.631 21.2177 114.458 15.7025 106.172 12.5745C97.8863 9.44649 88.8586 8.84625 80.2314 10.8497C71.6041 12.8531 63.7649 17.3702 57.7052 23.8296C51.6456 30.289 47.6377 38.4005 46.1888 47.138C42.5004 45.6809 38.5351 45.0585 34.5777 45.3155C30.6202 45.5724 26.7688 46.7024 23.2998 48.6243C19.8308 50.5461 16.8303 53.2122 14.5138 56.431C12.1972 59.6499 10.6221 63.3417 9.90141 67.2414C9.18073 71.1412 9.3324 75.1521 10.3455 78.9863C11.3586 82.8205 13.2081 86.3828 15.7611 89.4175C18.3141 92.4523 21.5074 94.8841 25.1116 96.5385C28.7158 98.1929 32.6416 99.0287 36.6071 98.9861" stroke="black" stroke-width="15" stroke-linecap="round" stroke-linejoin="round"/>
</svg>