<svg xmlns="http://www.w3.org/2000/svg" width="160" height="160" viewBox="0 0 180 180" fill="none">
  <path fill-rule="evenodd" clip-rule="evenodd" d="M90 39.3806C62.0409 39.3806 39.375 62.0466 39.375 90.0056C39.375 117.965 62.0409 140.631 90 140.631C117.959 140.631 140.625 117.965 140.625 90.0056C140.625 62.0466 117.959 39.3806 90 39.3806ZM90 135.006C65.1459 135.006 45 114.857 45 90.0056C45 65.1544 65.1459 45.0056 90 45.0056C114.854 45.0056 135 65.1544 135 90.0056C135 114.857 114.854 135.006 90 135.006Z" fill="#394240"/>
  <path fill-rule="evenodd" clip-rule="evenodd" d="M177.188 87.1875H149.062C147.507 87.1875 146.25 88.4447 146.25 90C146.25 91.5553 147.507 92.8125 149.062 92.8125H177.188C178.743 92.8125 180 91.5553 180 90C180 88.4447 178.743 87.1875 177.188 87.1875Z" fill="#394240"/>
  <path fill-rule="evenodd" clip-rule="evenodd" d="M32.2228 102.569L21.3581 105.48C19.8563 105.888 18.9647 107.429 19.3697 108.931C19.7719 110.43 21.3103 111.322 22.815 110.914L33.6797 108.003C35.1788 107.601 36.0703 106.065 35.6681 104.558C35.266 103.058 33.7219 102.167 32.2228 102.569Z" fill="#394240"/>
  <path fill-rule="evenodd" clip-rule="evenodd" d="M138.712 61.875C139.492 63.2222 141.21 63.6834 142.557 62.9016L166.913 48.8391C168.261 48.0656 168.722 46.3444 167.94 45C167.167 43.6528 165.445 43.1916 164.101 43.9734L139.745 58.0359C138.397 58.815 137.939 60.5278 138.712 61.875Z" fill="#394240"/>
  <path fill-rule="evenodd" clip-rule="evenodd" d="M50.2256 129.777C49.1287 128.678 47.3484 128.683 46.2487 129.777L38.295 137.731C37.1953 138.831 37.1981 140.614 38.2978 141.708C39.3947 142.808 41.1722 142.808 42.2719 141.708L50.2256 133.754C51.3253 132.66 51.3253 130.874 50.2256 129.777Z" fill="#394240"/>
  <path fill-rule="evenodd" clip-rule="evenodd" d="M118.125 41.2875C119.472 42.0609 121.191 41.6053 121.97 40.2553L136.032 15.8991C136.811 14.5519 136.35 12.8306 135 12.0572C133.656 11.2781 131.94 11.7394 131.161 13.0838L117.101 37.4456C116.319 38.7928 116.781 40.5056 118.125 41.2875Z" fill="#394240"/>
  <path fill-rule="evenodd" clip-rule="evenodd" d="M75.4425 144.332C73.9462 143.93 72.405 144.827 71.9972 146.32L69.0862 157.185C68.6841 158.69 69.5812 160.228 71.0803 160.63C72.5794 161.038 74.1178 160.147 74.52 158.642L77.4309 147.777C77.8387 146.284 76.9472 144.74 75.4425 144.332Z" fill="#394240"/>
  <path fill-rule="evenodd" clip-rule="evenodd" d="M90 33.75C91.5581 33.75 92.8153 32.4928 92.8181 30.9375V2.8125C92.8181 1.25719 91.5609 0 90 0C88.4503 0 87.1931 1.25719 87.1903 2.8125L87.1931 30.9375C87.1931 32.4928 88.4503 33.75 90 33.75Z" fill="#394240"/>
  <path fill-rule="evenodd" clip-rule="evenodd" d="M108.006 146.32C107.609 144.821 106.068 143.93 104.56 144.332C103.061 144.734 102.175 146.275 102.572 147.777L105.483 158.642C105.888 160.147 107.432 161.033 108.934 160.63C110.436 160.228 111.322 158.693 110.917 157.185L108.006 146.32Z" fill="#394240"/>
  <path fill-rule="evenodd" clip-rule="evenodd" d="M58.0415 40.2525C58.815 41.5997 60.5362 42.0609 61.875 41.2847C63.225 40.5056 63.689 38.79 62.91 37.44L48.8475 13.0838C48.0712 11.7394 46.35 11.2781 45 12.0572C43.6584 12.8306 43.1972 14.5519 43.9734 15.8963L58.0415 40.2525Z" fill="#394240"/>
  <path fill-rule="evenodd" clip-rule="evenodd" d="M133.757 129.772C132.666 128.678 130.882 128.678 129.78 129.772C128.68 130.871 128.689 132.654 129.78 133.748L137.734 141.702C138.836 142.808 140.617 142.796 141.713 141.702C142.813 140.603 142.813 138.831 141.711 137.725L133.757 129.772Z" fill="#394240"/>
  <path fill-rule="evenodd" clip-rule="evenodd" d="M13.0894 48.8391L37.4513 62.8959C38.7928 63.675 40.5113 63.2138 41.2847 61.875C42.0638 60.525 41.6081 58.8094 40.2609 58.0303L15.9019 43.9678C14.5575 43.1859 12.8363 43.65 12.0572 45C11.2866 46.3416 11.745 48.06 13.0894 48.8391Z" fill="#394240"/>
  <path fill-rule="evenodd" clip-rule="evenodd" d="M146.326 108L157.191 110.911C158.695 111.319 160.234 110.416 160.636 108.917C161.041 107.418 160.152 105.879 158.648 105.477L147.783 102.566C146.289 102.158 144.743 103.05 144.338 104.555C143.933 106.057 144.833 107.595 146.326 108Z" fill="#394240"/>
  <path fill-rule="evenodd" clip-rule="evenodd" d="M33.75 90C33.7528 88.4391 32.4984 87.1875 30.9431 87.1819L2.8125 87.1875C1.26 87.1875 0 88.4391 0 90C0.0028125 91.5497 1.26 92.8125 2.81531 92.8125L30.9431 92.8069C32.4928 92.8069 33.7528 91.5497 33.75 90Z" fill="#394240"/>
  <path fill-rule="evenodd" clip-rule="evenodd" d="M147.783 77.4253L158.647 74.5144C160.152 74.1122 161.038 72.5653 160.633 71.0634C160.234 69.57 158.698 68.6784 157.191 69.0806L146.326 71.9916C144.827 72.3881 143.935 73.935 144.337 75.4369C144.734 76.9359 146.284 77.8219 147.783 77.4253Z" fill="#394240"/>
  <path d="M90 135C114.853 135 135 114.853 135 90C135 65.1472 114.853 45 90 45C65.1472 45 45 65.1472 45 90C45 114.853 65.1472 135 90 135Z" fill="#F9EBB2"/>
  <path fill-rule="evenodd" clip-rule="evenodd" d="M41.2875 118.125C40.514 116.775 38.7956 116.311 37.4484 117.087L13.0893 131.155C11.745 131.934 11.2781 133.65 12.0572 135C12.8362 136.342 14.5575 136.803 15.9018 136.027L40.2581 121.958C41.5997 121.185 42.0665 119.472 41.2875 118.125Z" fill="#394240"/>
  <path fill-rule="evenodd" clip-rule="evenodd" d="M129.78 50.2172C130.874 51.3225 132.654 51.3113 133.757 50.2172L141.711 42.2634C142.813 41.1638 142.808 39.3863 141.705 38.2866C140.614 37.1869 138.833 37.1869 137.734 38.2866L129.78 46.2403C128.678 47.3344 128.683 49.1203 129.78 50.2172Z" fill="#394240"/>
  <path fill-rule="evenodd" clip-rule="evenodd" d="M61.875 138.713C60.5278 137.933 58.815 138.395 58.036 139.733L43.9735 164.101C43.2 165.443 43.65 167.161 45 167.94C46.3472 168.708 48.0656 168.247 48.8447 166.908L62.9016 142.546C63.6778 141.207 63.225 139.489 61.875 138.713Z" fill="#394240"/>
  <path fill-rule="evenodd" clip-rule="evenodd" d="M104.563 35.6625C106.057 36.0703 107.595 35.1675 108.008 33.6741L110.919 22.8094C111.322 21.3047 110.424 19.7606 108.925 19.3641C107.432 18.9563 105.888 19.8478 105.486 21.3525L102.575 32.2172C102.161 33.7106 103.064 35.2547 104.563 35.6625Z" fill="#394240"/>
  <path fill-rule="evenodd" clip-rule="evenodd" d="M90 146.25C88.4447 146.244 87.1931 147.502 87.1875 149.057L87.1931 177.193C87.1931 178.737 88.4391 180 90 180C91.5553 180 92.8125 178.737 92.8153 177.188L92.8069 149.057C92.8069 147.507 91.5609 146.25 90 146.25Z" fill="#394240"/>
  <path fill-rule="evenodd" clip-rule="evenodd" d="M72 33.6741C72.3909 35.1731 73.9434 36.0647 75.4453 35.6625C76.9416 35.2659 77.8247 33.7191 77.4338 32.2172L74.5228 21.3525C74.115 19.8478 72.5738 18.9563 71.0719 19.3641C69.5784 19.7663 68.6813 21.3019 69.0891 22.8094L72 33.6741Z" fill="#394240"/>
  <path fill-rule="evenodd" clip-rule="evenodd" d="M121.958 139.742C121.185 138.4 119.475 137.933 118.125 138.713C116.778 139.486 116.322 141.202 117.093 142.552L131.167 166.908C131.94 168.255 133.65 168.722 135 167.94C136.347 167.161 136.806 165.44 136.032 164.095L121.958 139.742Z" fill="#394240"/>
  <path fill-rule="evenodd" clip-rule="evenodd" d="M46.2459 50.2172C47.3344 51.3281 49.1231 51.3169 50.2228 50.2172C51.3225 49.1288 51.3113 47.3484 50.2228 46.2403L42.2691 38.2866C41.1638 37.1869 39.3863 37.1925 38.2894 38.2922C37.1925 39.3863 37.1869 41.1638 38.2922 42.2634L46.2459 50.2172Z" fill="#394240"/>
  <path fill-rule="evenodd" clip-rule="evenodd" d="M166.916 131.155L142.552 117.098C141.207 116.325 139.494 116.775 138.718 118.131C137.936 119.472 138.403 121.185 139.742 121.964L164.109 136.027C165.451 136.8 167.164 136.35 167.943 135C168.716 133.65 168.255 131.934 166.916 131.155Z" fill="#394240"/>
  <path fill-rule="evenodd" clip-rule="evenodd" d="M33.6769 71.9944L22.8094 69.0806C21.3019 68.6784 19.7634 69.5756 19.364 71.0747C18.959 72.5681 19.845 74.1122 21.3525 74.52L32.2172 77.4253C33.7106 77.8359 35.2575 76.9359 35.6625 75.4369C36.0703 73.9491 35.1703 72.4106 33.6769 71.9944Z" fill="#394240"/>
  <path fill-rule="evenodd" clip-rule="evenodd" d="M90 56.2556C88.4447 56.2556 87.1875 57.5128 87.1875 59.0681C87.1875 60.6234 88.4447 61.8806 90 61.8806C105.531 61.8806 118.125 74.4722 118.125 90.0056C118.125 91.5609 119.382 92.8181 120.938 92.8181C122.493 92.8181 123.75 91.5609 123.75 90.0056C123.75 71.3672 108.638 56.2556 90 56.2556Z" fill="#394240"/>
</svg>