<svg xmlns="http://www.w3.org/2000/svg" width="24" height="22" viewBox="0 0 24 22" fill="none">
  <path d="M18.3383 10.5526H1.70644C0.765516 10.5526 0 9.83927 0 8.96239C0 8.08552 0.765516 7.37211 1.70644 7.37211H18.3383C19.5783 7.37211 20.5871 6.43194 20.5871 5.27631C20.5871 4.12069 19.5783 3.18052 18.3383 3.18052C17.0982 3.18052 16.0894 4.12069 16.0894 5.27631C16.0894 6.15319 15.3239 6.8666 14.383 6.8666C13.4421 6.8666 12.6766 6.15319 12.6766 5.27631C12.6766 2.36694 15.2164 0 18.3383 0C21.4602 0 24 2.36694 24 5.27631C24 8.18569 21.4602 10.5526 18.3383 10.5526ZM1.70644 8.26318C1.29277 8.26318 0.956156 8.57683 0.956156 8.96239C0.956156 9.34791 1.29272 9.6616 1.70644 9.6616H18.3383C20.9329 9.6616 23.0438 7.69437 23.0438 5.27636C23.0438 2.85835 20.933 0.891115 18.3383 0.891115C15.7436 0.891115 13.6327 2.85835 13.6327 5.27636C13.6327 5.66187 13.9693 5.97557 14.383 5.97557C14.7966 5.97557 15.1332 5.66192 15.1332 5.27636C15.1332 3.62942 16.571 2.28949 18.3383 2.28949C20.1055 2.28949 21.5432 3.62937 21.5432 5.27636C21.5432 6.92334 20.1055 8.26323 18.3383 8.26323L1.70644 8.26318Z" fill="white"/>
  <path d="M18.3383 22C15.2164 22 12.6765 19.6331 12.6765 16.7237C12.6765 15.8468 13.4421 15.1334 14.383 15.1334C15.3239 15.1334 16.0894 15.8468 16.0894 16.7237C16.0894 17.8793 17.0982 18.8195 18.3383 18.8195C19.5783 18.8195 20.5871 17.8793 20.5871 16.7237C20.5871 15.5681 19.5782 14.6279 18.3383 14.6279H1.70644C0.765516 14.6279 0 13.9145 0 13.0376C0 12.1607 0.765516 11.4473 1.70644 11.4473H18.3383C21.4602 11.4473 24 13.8143 24 16.7236C24 19.633 21.4602 22 18.3383 22ZM14.383 16.0245C13.9694 16.0245 13.6328 16.3381 13.6328 16.7237C13.6328 19.1417 15.7437 21.1089 18.3383 21.1089C20.933 21.1089 23.0438 19.1417 23.0438 16.7237C23.0438 14.3057 20.933 12.3384 18.3383 12.3384H1.70644C1.29277 12.3384 0.956156 12.6521 0.956156 13.0377C0.956156 13.4232 1.29272 13.7369 1.70644 13.7369H18.3383C20.1055 13.7369 21.5433 15.0767 21.5433 16.7237C21.5433 18.3707 20.1055 19.7106 18.3383 19.7106C16.571 19.7106 15.1333 18.3708 15.1333 16.7238C15.1333 16.3382 14.7967 16.0245 14.383 16.0245Z" fill="white"/>
  <path d="M8.04471 6.52315H1.16594C0.901944 6.52315 0.687866 6.32369 0.687866 6.07762C0.687866 5.83154 0.901944 5.63208 1.16594 5.63208H8.04471C8.30871 5.63208 8.52279 5.83154 8.52279 6.07762C8.52279 6.32369 8.30871 6.52315 8.04471 6.52315Z" fill="white"/>
  <path d="M10.4522 6.52315H10.1083C9.84433 6.52315 9.63025 6.32369 9.63025 6.07762C9.63025 5.83154 9.84433 5.63208 10.1083 5.63208H10.4522C10.7162 5.63208 10.9303 5.83154 10.9303 6.07762C10.9303 6.32369 10.7162 6.52315 10.4522 6.52315Z" fill="white"/>
  <path d="M10.4523 16.3679H1.16594C0.901944 16.3679 0.687866 16.1685 0.687866 15.9224C0.687866 15.6763 0.901944 15.4769 1.16594 15.4769H10.4523C10.7163 15.4769 10.9303 15.6763 10.9303 15.9224C10.9303 16.1685 10.7163 16.3679 10.4523 16.3679Z" fill="white"/>
</svg>